/* XPM */
static char * veles64_xpm[] = {
"64 64 422 2",
"  	c None",
". 	c #424242",
"+ 	c #404040",
"@ 	c #414141",
"# 	c #3F3F3F",
"$ 	c #3D3D3D",
"% 	c #3C3C3C",
"& 	c #3A3A3A",
"* 	c #434343",
"= 	c #3E3E3E",
"- 	c #3B3B3B",
"; 	c #373737",
"> 	c #444444",
", 	c #454545",
"' 	c #393939",
") 	c #363636",
"! 	c #464646",
"~ 	c #383838",
"{ 	c #353535",
"] 	c #474747",
"^ 	c #333333",
"/ 	c #484848",
"( 	c #494949",
"_ 	c #4A4A4A",
": 	c #343434",
"< 	c #4B4B4B",
"[ 	c #323232",
"} 	c #4C4C4C",
"| 	c #4D4D4D",
"1 	c #313131",
"2 	c #4E4E4E",
"3 	c #303030",
"4 	c #2F2F2F",
"5 	c #4F4F4F",
"6 	c #2E2E2E",
"7 	c #505050",
"8 	c #2C2C2C",
"9 	c #515151",
"0 	c #2D2D2D",
"a 	c #2A2A2A",
"b 	c #2B2B2B",
"c 	c #525252",
"d 	c #282828",
"e 	c #1C1C1C",
"f 	c #262626",
"g 	c #181818",
"h 	c #111111",
"i 	c #424241",
"j 	c #454444",
"k 	c #464645",
"l 	c #2F2F30",
"m 	c #323130",
"n 	c #31302F",
"o 	c #252525",
"p 	c #141414",
"q 	c #121212",
"r 	c #957D6D",
"s 	c #B79682",
"t 	c #BA9A85",
"u 	c #8B7769",
"v 	c #323131",
"w 	c #8A7263",
"x 	c #A18370",
"y 	c #9B7E6B",
"z 	c #655347",
"A 	c #191919",
"B 	c #171717",
"C 	c #151515",
"D 	c #131313",
"E 	c #695B54",
"F 	c #A68A78",
"G 	c #AB8E7C",
"H 	c #AE907E",
"I 	c #685D56",
"J 	c #6C5B51",
"K 	c #937968",
"L 	c #8D7363",
"M 	c #846B5B",
"N 	c #332C27",
"O 	c #161616",
"P 	c #7C6A5F",
"Q 	c #987F70",
"R 	c #9B8273",
"S 	c #947D70",
"T 	c #4C4B4A",
"U 	c #463E3B",
"V 	c #806A5D",
"W 	c #7D6658",
"X 	c #776153",
"Y 	c #4A3E36",
"Z 	c #1A1A1A",
"` 	c #444342",
" .	c #7E6C61",
"..	c #877367",
"+.	c #897469",
"@.	c #74655D",
"#.	c #323231",
"$.	c #64544B",
"%.	c #69564B",
"&.	c #655248",
"*.	c #53453C",
"=.	c #1E1E1E",
"-.	c #1B1B1B",
";.	c #4F4A48",
">.	c #72635B",
",.	c #77675F",
"'.	c #56514F",
").	c #443A35",
"!.	c #53443D",
"~.	c #51423C",
"{.	c #4B3F38",
"].	c #252322",
"^.	c #1D1D1D",
"/.	c #544D4A",
"(.	c #615651",
"_.	c #625753",
":.	c #605653",
"<.	c #494848",
"[.	c #2A2727",
"}.	c #3C322E",
"|.	c #3A312D",
"1.	c #382F2D",
"2.	c #292624",
"3.	c #202020",
"4.	c #716259",
"5.	c #887265",
"6.	c #877265",
"7.	c #846F64",
"8.	c #7F6C62",
"9.	c #7D6C61",
"0.	c #7B6B61",
"a.	c #786960",
"b.	c #76675F",
"c.	c #74665D",
"d.	c #72645C",
"e.	c #6E625B",
"f.	c #6C6059",
"g.	c #695E57",
"h.	c #665B55",
"i.	c #625853",
"j.	c #5F5650",
"k.	c #5C534E",
"l.	c #58504C",
"m.	c #554D49",
"n.	c #514A46",
"o.	c #4E4844",
"p.	c #4A4441",
"q.	c #47423F",
"r.	c #443F3D",
"s.	c #413C3A",
"t.	c #3B3736",
"u.	c #34302F",
"v.	c #2E2B29",
"w.	c #2B2828",
"x.	c #2A2424",
"y.	c #282222",
"z.	c #242020",
"A.	c #232021",
"B.	c #212121",
"C.	c #1F1F1F",
"D.	c #716359",
"E.	c #E6BC9F",
"F.	c #E7BCA0",
"G.	c #E3B99E",
"H.	c #DEB59B",
"I.	c #D9B299",
"J.	c #D4AE96",
"K.	c #CEAA93",
"L.	c #C9A690",
"M.	c #C3A28C",
"N.	c #BE9C88",
"O.	c #B89885",
"P.	c #B19381",
"Q.	c #AC8F7C",
"R.	c #A58A79",
"S.	c #9E8475",
"T.	c #987F71",
"U.	c #92796C",
"V.	c #8B7467",
"W.	c #846F63",
"X.	c #7E6A5F",
"Y.	c #77645B",
"Z.	c #705F56",
"`.	c #6A5A51",
" +	c #62524B",
".+	c #584A43",
"++	c #51443E",
"@+	c #4A3E39",
"#+	c #423834",
"$+	c #3B322F",
"%+	c #342D2B",
"&+	c #2D2726",
"*+	c #262222",
"=+	c #222222",
"-+	c #A58876",
";+	c #E6BCA0",
">+	c #E3B99D",
",+	c #DEB59A",
"'+	c #D9B198",
")+	c #D4AD95",
"!+	c #CEA991",
"~+	c #C8A58E",
"{+	c #C3A18B",
"]+	c #BD9C87",
"^+	c #B69784",
"/+	c #B09380",
"(+	c #AA8D7B",
"_+	c #A38877",
":+	c #9D8374",
"<+	c #977E70",
"[+	c #91796B",
"}+	c #8A7466",
"|+	c #836F62",
"1+	c #7D6A5E",
"2+	c #766359",
"3+	c #6E5C52",
"4+	c #66554B",
"5+	c #5F4E47",
"6+	c #574942",
"7+	c #51433E",
"8+	c #493E39",
"9+	c #242323",
"0+	c #3E3D3D",
"a+	c #9C8271",
"b+	c #B89782",
"c+	c #B59580",
"d+	c #B2937F",
"e+	c #AD8F7D",
"f+	c #A98C7A",
"g+	c #A58977",
"h+	c #9F8575",
"i+	c #9B8272",
"j+	c #977E6F",
"k+	c #917A6B",
"l+	c #8C7668",
"m+	c #836D62",
"n+	c #7D695F",
"o+	c #78665C",
"p+	c #726157",
"q+	c #6C5C52",
"r+	c #65564C",
"s+	c #605048",
"t+	c #5A4B44",
"u+	c #544740",
"v+	c #4F423D",
"w+	c #443A36",
"x+	c #3F3632",
"y+	c #39322F",
"z+	c #2F2928",
"A+	c #262525",
"B+	c #232323",
"C+	c #292929",
"D+	c #272727",
"E+	c #242424",
"F+	c #3B3C3C",
"G+	c #343435",
"H+	c #2E2F2F",
"I+	c #2D2E2E",
"J+	c #2C2D2D",
"K+	c #2B2C2C",
"L+	c #766558",
"M+	c #E7BEA0",
"N+	c #E3B89D",
"O+	c #DCB398",
"P+	c #D4AD94",
"Q+	c #CCA68E",
"R+	c #C49F89",
"S+	c #BB9982",
"T+	c #B3927D",
"U+	c #AA8B77",
"V+	c #A18472",
"W+	c #997D6C",
"X+	c #907667",
"Y+	c #887061",
"Z+	c #7F695C",
"`+	c #776257",
" @	c #6F5B51",
".@	c #66544B",
"+@	c #5D4E45",
"@@	c #4B3F3A",
"#@	c #433834",
"$@	c #3A322F",
"%@	c #322A29",
"&@	c #292424",
"*@	c #504844",
"=@	c #E6BB9E",
"-@	c #ECBFA2",
";@	c #E4B99C",
">@	c #DCB297",
",@	c #D3AB90",
"'@	c #CBA48C",
")@	c #C29E86",
"!@	c #B99680",
"~@	c #B08F7B",
"{@	c #A88875",
"]@	c #9F826F",
"^@	c #967A6A",
"/@	c #8D7464",
"(@	c #846C5E",
"_@	c #7B6559",
":@	c #725E53",
"<@	c #68574D",
"[@	c #605047",
"}@	c #564841",
"|@	c #4E403B",
"1@	c #443935",
"2@	c #322B2A",
"3@	c #866F60",
"4@	c #E5B99B",
"5@	c #DEB396",
"6@	c #D5AC91",
"7@	c #CDA68C",
"8@	c #C49F87",
"9@	c #BD9982",
"0@	c #B4927D",
"a@	c #AB8C78",
"b@	c #A28472",
"c@	c #9A7E6D",
"d@	c #927767",
"e@	c #897062",
"f@	c #80695C",
"g@	c #786257",
"h@	c #5D4D45",
"i@	c #554640",
"j@	c #4C3F3A",
"k@	c #3A322E",
"l@	c #312A29",
"m@	c #2C2928",
"n@	c #302929",
"o@	c #302A2A",
"p@	c #2F2B2A",
"q@	c #2B2A2A",
"r@	c #282727",
"s@	c #2C2525",
"t@	c #2C2625",
"u@	c #292828",
"v@	c #39312F",
"w@	c #3C3331",
"x@	c #36312E",
"y@	c #38302D",
"z@	c #3A312E",
"A@	c #322C2B",
"B@	c #2F2C2B",
"C@	c #483D38",
"D@	c #4A3E38",
"E@	c #3D3431",
"F@	c #493D38",
"G@	c #443936",
"H@	c #272726",
"I@	c #574841",
"J@	c #2D2B2A",
"K@	c #38312F",
"L@	c #564741",
"M@	c #564740",
"N@	c #34302D",
"O@	c #5A4A42",
"P@	c #65534A",
"Q@	c #584A42",
"R@	c #604F47",
"S@	c #655349",
"T@	c #4F423B",
"U@	c #705C51",
"V@	c #725E52",
"W@	c #735E52",
"X@	c #4F443C",
"Y@	c #604F45",
"Z@	c #69574C",
"`@	c #574940",
" #	c #80695A",
".#	c #81695B",
"+#	c #7F675A",
"@#	c #3C3531",
"##	c #52453D",
"$#	c #7F685A",
"%#	c #413833",
"&#	c #7A6456",
"*#	c #8F7363",
"=#	c #8F7463",
"-#	c #272626",
";#	c #393230",
">#	c #8A7160",
",#	c #665449",
"'#	c #3A342F",
")#	c #967A68",
"!#	c #9C7E6C",
"~#	c #9C7F6C",
"{#	c #715D50",
"]#	c #886E5E",
"^#	c #8B7160",
"/#	c #66544A",
"(#	c #A98974",
"_#	c #A88873",
":#	c #54463D",
"<#	c #725E51",
"[#	c #A58672",
"}#	c #473C35",
"|#	c #232424",
"1#	c #947866",
"2#	c #B5937C",
"3#	c #B6937C",
"4#	c #AA8A74",
"5#	c #B39079",
"6#	c #776154",
"7#	c #39312E",
"8#	c #B7947C",
"9#	c #C19C84",
"0#	c #C19C83",
"a#	c #A58570",
"b#	c #6F5A4D",
"c#	c #CCA58A",
"d#	c #CCA58B",
"e#	c #C59F85",
"f#	c #463B34",
"g#	c #212222",
"h#	c #D7AC91",
"i#	c #D8AD91",
"j#	c #7F6758",
"k#	c #302B28",
"l#	c #B29078",
"m#	c #202021",
"n#	c #252423",
"o#	c #101010",
"                                                                                                                                ",
"                                                                                                                                ",
"                                                                                                                                ",
"                                                  . + + . @ @ + # # # $ % &                                                     ",
"                                            . * * * * * * . . @ + + # = = $ % - & ;                                             ",
"                                        * > > , > > > > * * . . @ + + # = $ % - - & ' )                                         ",
"                                    . > , , , , ! , , , > > * * . @ + # = $ $ % - & ' ' ~ {                                     ",
"                                . > , , ! ! ] ] ] ] ! ! ! , > > * . @ + # = $ % - & ' ~ ~ ; ) ^                                 ",
"                              * > , ! ! ] ] / / / / / ] ] ! , , > * . + # = $ % - & ' ~ ~ ; ) { ^                               ",
"                            * > , ! ] ] / ( ( ( _ _ ( ( / ] ] ! , * . @ + # = $ - & ' ~ ; ; ) { : ^                             ",
"                        @ * > , ! ] / ( ( _ < < < < < _ _ ( / ] ! > * . @ # = $ % & ' ~ ; ) ) { : ^ [                           ",
"                      @ . * > , ! / ( _ < } } } | | } } < _ ( / ] , > * @ + = $ % & ' ~ ; ) { { : ^ [ 1                         ",
"                    # . * > , ! ] ( _ < } | | 2 2 2 2 | } } _ ( / ! , * . + # $ % - & ~ ; ) { : ^ [ [ 3 4                       ",
"                    + . * > , ] / ( < } | 2 5 5 5 5 5 2 | | < _ ( ] , > . + # = % - ' ~ ; ) { : ^ [ 1 3 4 6                     ",
"                  # @ . * > ! ] ( _ } | 2 5 5 7 7 7 7 5 2 | } < ( / ! > . @ # = % - ' ~ ; ) { : ^ [ 1 3 4 6 8                   ",
"                $ + + . * , ! / ( < } 2 5 7 7 9 9 9 7 7 5 2 | } _ / ! > * @ # = % - ' ~ ; ) { ^ ^ 1 3 4 6 0 8 a                 ",
"              % = # + . * , ! / _ < | 2 5 7 9 9 9 9 9 7 7 5 | } _ ( ] , * @ # = % - ' ~ ; { : ^ [ 1 3 4 6 8 b a                 ",
"              $ = # + . * , ! / _ } | 2 5 7 9 c c c 9 9 7 5 | } _ ( ] , * @ # $ % & ' ; ) { : ^ [ 1 3 6 0 8 b d e               ",
"            ' $ = # + @ * , ! / _ } | 2 7 7 9 c c c 9 9 7 5 | } _ ( ! > . @ # $ - & ~ ; ) { ^ [ 1 3 4 6 0 b f g h               ",
"            - % $ = + i j k ! / _ < | 2 5 7 9 c c c 9 7 7 2 | } _ / ! > . + = $ - ' ~ ; { : ^ [ 1 l m n 8 o g p q p             ",
"          ; - % $ = # r s t u / ( < | 2 5 7 7 9 9 9 9 7 5 2 | < ( / ! * @ + = % & ' ; ) { : [ 1 v w x y z A B C D h             ",
"          ' & - % $ # E F G H I ( _ } | 2 5 7 7 7 7 7 5 2 | } _ ( ] , . @ # $ - & ~ ; { : ^ [ 1 J K L M N A g O p q C           ",
"          ' ' & - $ = # P Q R S T ( < } | 2 5 5 5 5 5 2 | } < ( / ! > . + = % & ' ; ) { ^ [ 1 U V W X Y e Z g O p D q           ",
"        { ~ ' & - % $ # `  ...+.@./ _ < } | | 2 2 2 | | } < ( / ! > . + = $ - ' ~ ) { : ^ 1 #.$.%.&.*.=.e -.A B C D h           ",
"        { ; ~ ' & - % = # ;.>.@.,.'./ _ < < } } } } } < _ ( / ! , * @ # $ - & ~ ; { : ^ [ 6 ).!.~.{.].=.^.-.Z g O p q C         ",
"        ) ; ; ~ ' & % $ = + /.(._.:.<./ ( _ _ _ _ _ _ ( / ] ! , * @ # = % & ' ; ) : ^ 4 d [.}.|.1.2.3.=.^.e Z g O p q p         ",
"        { ) ) ; ~ ' - % $ = + 4.5.6.7.8.9.0.a.b.c.d.e.f.g.h.i.j.k.l.m.n.o.p.q.r.s.t.u.v.w.x.y.z.A.B.3.C.=.e Z A B C D h         ",
"        : { ) ) ; ~ ' - % $ = D.E.F.G.H.I.J.K.L.M.N.O.P.Q.R.S.T.U.V.W.X.Y.Z.`. +.+++@+#+$+%+&+*+=+B.3.C.=.e -.A B C D h         ",
"      1 : : { { ) ; ~ ' - % $ = -+;+>+,+'+)+!+~+{+]+^+/+(+_+:+<+[+}+|+1+2+3+4+5+6+7+8+#+$+%+&+9+=+B.3.C.=.^.-.A B C D h         ",
"      3 ^ ^ : : { ) ; ~ ' & - % 0+a+b+c+d+e+f+g+h+i+j+k+l+6.m+n+o+p+q+r+s+t+u+v+@+w+x+y+%+z+A+B+=+=+B.3.=.^.-.A g O D h         ",
"      4 [ [ ^ ^ : { ) ; ~ ' & - % % $ = = # # # # # = $ $ % ' { 1 6 0 b a C+d D+D+f o o E+E+E+B+=+=+B.3.=.^.-.Z g O p h         ",
"      6 1 1 [ [ ^ : { { ) ; ~ ' & & - - - F+% % % - - ' G+1 H+I+J+K+b a C+C+d D+f f o o E+E+E+B+=+=+B.3.=.^.-.Z g O p h         ",
"      0 3 3 1 1 [ ^ ^ : { ) ; ; ~ ' ' L+M+N+O+P+Q+R+S+T+U+V+W+X+Y+Z+`+ @.@+@u+@@#@$@%@&@E+E+E+B+=+=+B.3.=.^.-.Z g O p h         ",
"      0 4 4 3 3 1 1 [ ^ ^ : { ) ) ; ; *@=@-@;@>@,@'@)@!@~@{@]@^@/@(@_@:@<@[@}@|@1@$+2@&@E+E+E+B+=+=+B.3.=.^.-.A g O D h         ",
"      8 6 6 4 4 3 3 1 1 [ ^ ^ : : { { { 3@4@5@6@7@8@9@0@a@b@c@d@e@f@g@ @.@h@i@j@#@k@l@A+E+E+B+B+=+B.3.C.=.^.-.A B C D h         ",
"        8 0 0 6 6 4 3 3 1 1 [ [ ^ ^ 1 b C+m@n@o@p@q@a a a C+C+C+d d D+D+f f r@s@s@t@A+E+E+E+B+B+=+B.3.C.=.e -.A B C D h         ",
"        b 8 8 0 0 6 6 4 4 3 3 1 4 C+f D+D+u@v@w@w@x@C+C+d d d d D+D+D+f f D+y@z@z@A@o E+E+E+B+B+=+B.3.C.^.e Z A B C D h         ",
"        a a b b 8 8 0 0 6 6 6 C+E+E+o f f f B@C@8+D@x@D+D+D+D+D+f f f f o E@F@C@G@H@o E+E+B+B+=+=+B.3.=.^.e Z g O p q D         ",
"        d C+C+a b b 8 8 0 a B+B.=+B+E+o o o f #+}@I@i@J@f f f f f f o o K@}@L@M@N@o E+E+E+B+B+=+B.3.C.=.^.-.A g O p q C         ",
"        D+D+d d C+a a a E+C.3.B.=+B+B+E+o o o f O@P@P@Q@f f f f o o o m@R@S@S@T@o E+E+E+B+B+=+=+B.3.C.^.e Z A B C D h           ",
"          f f D+D+d f C.^.=.C.3.B.=+B+B+E+E+E+o x@U@V@W@X@o o o o o o Y@V@V@Z@r@E+E+E+E+B+B+=+B.3.C.=.^.-.Z g O p q q           ",
"          o o o f B+-.-.e =.C.3.B.=+=+B+B+E+E+E+E+`@ #.#+#@#o o o o ##.#.#$#%#E+E+E+E+B+B+=+B.B.3.C.^.e -.A B O p q C           ",
"            B+B+C.B g Z -.^.=.C.3.B.=+=+B+B+E+E+E+E+&#*#=#.#-#o o ;#>#*#*#,#E+E+E+E+B+B+=+=+B.3.C.=.^.-.Z g O C D h             ",
"            =+e p O B A -.e ^.=.3.3.B.=+=+B+B+E+E+E+'#)#!#~#{#o o ]#~#!#^#A+E+E+B+B+B+=+=+B.3.C.=.^.e Z A B O p q C             ",
"              h D C O g Z -.e =.C.3.3.B.=+=+B+B+B+E+E+/#(#(#_#:#<#(#(#[#}#E+E+B+B+B+=+=+B.3.3.C.^.e -.A g O p D h               ",
"              q q p C B A Z -.^.=.C.3.3.B.=+=+B+B+B+B+|#1#2#3#4#5#3#3#6#E+B+B+B+B+=+=+B.3.3.C.=.^.-.Z g B C D q C               ",
"                h q p O B A Z e ^.=.C.3.3.B.B.=+=+B+B+B+7#8#9#9#9#0#a#B+B+B+B+=+=+B.B.3.C.C.=.^.-.Z A B O p q q                 ",
"                O h D C O g A Z e ^.=.C.C.3.B.B.=+=+=+=+B+b#c#d#d#e#f#B+=+=+=+B.B.3.3.C.=.=.^.-.Z A g O p D h                   ",
"                  D q D C O g A Z e ^.^.=.C.3.3.B.B.B.=+=+g#a#h#i#j#=+=+=+B.B.B.3.3.C.=.^.e -.Z A g O C D h C                   ",
"                    q q p C O g A Z -.e ^.=.C.C.3.3.3.B.B.B.k#c#l#m#B.B.B.3.3.3.C.=.=.^.e -.Z A g O C D q D                     ",
"                      h q p C O g A Z -.e ^.^.=.=.C.C.3.3.3.3.n#B.3.3.3.3.C.C.=.=.^.e e -.Z A B O C D q h                       ",
"                        o#q D C O B g A Z -.e ^.^.=.=.=.C.C.C.C.C.C.C.C.=.=.=.^.e e -.Z A g B O C D q h                         ",
"                          q q D p O B g A Z Z -.e e ^.^.^.^.=.=.=.=.^.^.^.^.e e -.Z A A g B C p D q p                           ",
"                            D h D p C O B g A A Z -.-.-.e e e e e e e e -.-.Z Z A A g B O C p D h D                             ",
"                              p h q D p C O B g g A A Z Z Z Z Z Z Z Z Z Z A A g g B O C p D q h C                               ",
"                                  q h D D p C O O B g g g g A A A g g g g B B O O C p D q h D                                   ",
"                                    O q h q D p p C O O O O B B B B O O O C C p p D q h q                                       ",
"                                        C q h q D D D p p p C C C C p p p D D q q h q                                           ",
"                                              p h h h q q q D D D q q q q h h q C                                               ",
"                                                      O D p C C C p p D C                                                       ",
"                                                                                                                                ",
"                                                                                                                                ",
"                                                                                                                                ",
"                                                                                                                                "};
