/* XPM */
static char * veles32_xpm[] = {
"32 32 183 2",
"  	c None",
". 	c #3E3E3E",
"+ 	c #3C3C3C",
"@ 	c #3B3B3B",
"# 	c #3A3A3A",
"$ 	c #414141",
"% 	c #434343",
"& 	c #444444",
"* 	c #424242",
"= 	c #404040",
"- 	c #3F3F3F",
"; 	c #3D3D3D",
"> 	c #393939",
", 	c #353535",
"' 	c #464646",
") 	c #454545",
"! 	c #373737",
"~ 	c #323232",
"{ 	c #474747",
"] 	c #484848",
"^ 	c #494949",
"/ 	c #363636",
"( 	c #4A4A4A",
"_ 	c #4C4C4C",
": 	c #4B4B4B",
"< 	c #333333",
"[ 	c #313131",
"} 	c #4D4D4D",
"| 	c #4E4E4E",
"1 	c #4F4F4F",
"2 	c #2E2E2E",
"3 	c #505050",
"4 	c #343434",
"5 	c #303030",
"6 	c #2B2B2B",
"7 	c #515151",
"8 	c #525252",
"9 	c #383838",
"0 	c #2F2F2F",
"a 	c #2D2D2D",
"b 	c #2A2A2A",
"c 	c #454544",
"d 	c #302F2F",
"e 	c #1B1B1B",
"f 	c #151515",
"g 	c #685A53",
"h 	c #B0937F",
"i 	c #837065",
"j 	c #846D5F",
"k 	c #967A69",
"l 	c #3B322C",
"m 	c #161616",
"n 	c #121212",
"o 	c #9E8575",
"p 	c #A08677",
"q 	c #57514F",
"r 	c #574B44",
"s 	c #A28472",
"t 	c #6C584B",
"u 	c #181818",
"v 	c #141414",
"w 	c #171717",
"x 	c #524B48",
"y 	c #A48879",
"z 	c #7C6B62",
"A 	c #2E2D2D",
"B 	c #907565",
"C 	c #7E6658",
"D 	c #212020",
"E 	c #1C1C1C",
"F 	c #191919",
"G 	c #75655B",
"H 	c #B0927F",
"I 	c #B39481",
"J 	c #B09280",
"K 	c #AB8E7D",
"L 	c #A68A7A",
"M 	c #A08676",
"N 	c #9A8172",
"O 	c #947C6E",
"P 	c #8C7668",
"Q 	c #846F63",
"R 	c #7F6A5E",
"S 	c #79655A",
"T 	c #6C5A50",
"U 	c #66534A",
"V 	c #81685A",
"W 	c #927665",
"X 	c #262524",
"Y 	c #202020",
"Z 	c #1D1D1D",
"` 	c #1A1A1A",
" .	c #A98C7A",
"..	c #B39480",
"+.	c #B89884",
"@.	c #B39581",
"#.	c #AE907E",
"$.	c #A98D7B",
"%.	c #A48877",
"&.	c #9F8474",
"*.	c #9C8171",
"=.	c #997E6E",
"-.	c #957A69",
";.	c #927666",
">.	c #937766",
",.	c #957967",
"'.	c #A1826F",
").	c #473C35",
"!.	c #222222",
"~.	c #3D3C3C",
"{.	c #947B6C",
"].	c #7D6A5F",
"^.	c #292929",
"/.	c #282828",
"(.	c #312D2B",
"_.	c #967968",
":.	c #69564A",
"<.	c #232323",
"[.	c #1E1E1E",
"}.	c #131313",
"|.	c #61544C",
"1.	c #B69581",
"2.	c #C39F88",
"3.	c #BE9B84",
"4.	c #B4927D",
"5.	c #A98A76",
"6.	c #9E816F",
"7.	c #927767",
"8.	c #876E61",
"9.	c #7C6558",
"0.	c #6F5B50",
"a.	c #8A7060",
"b.	c #876D5E",
"c.	c #242424",
"d.	c #987C6A",
"e.	c #A88975",
"f.	c #9B7E6C",
"g.	c #977C6A",
"h.	c #937867",
"i.	c #917665",
"j.	c #907564",
"k.	c #9D806D",
"l.	c #39312E",
"m.	c #2C2C2C",
"n.	c #262626",
"o.	c #272727",
"p.	c #836A5C",
"q.	c #8F7564",
"r.	c #2D2B2A",
"s.	c #433934",
"t.	c #9D7F6D",
"u.	c #5E4E44",
"v.	c #212121",
"w.	c #1F1F1F",
"x.	c #252525",
"y.	c #342F2D",
"z.	c #987B6A",
"A.	c #292727",
"B.	c #856C5D",
"C.	c #292827",
"D.	c #605046",
"E.	c #A38471",
"F.	c #6A574C",
"G.	c #826A5C",
"H.	c #9E806D",
"I.	c #473D37",
"J.	c #8C7161",
"K.	c #A48571",
"L.	c #4C403A",
"M.	c #655348",
"N.	c #A68673",
"O.	c #7C6557",
"P.	c #3D3530",
"Q.	c #A88874",
"R.	c #A58572",
"S.	c #A78873",
"T.	c #2F2B28",
"U.	c #755F51",
"V.	c #B18E7A",
"W.	c #B7947D",
"X.	c #604E44",
"Y.	c #AD8B75",
"Z.	c #9D7F6A",
"                                                                ",
"                            . + @ #                             ",
"                    $ % & & % * = - ; + > ,                     ",
"                $ & ' ' ' ' ) % * = . + @ > ! ~                 ",
"              * ) { ] ^ ^ ] { ' & $ - ; @ > ! / ~               ",
"            * ) { ^ ( _ _ : ( ] ' % = . @ > ! , < [             ",
"          = % ' ] : } | 1 | } ( { & $ . @ > ! , < [ 2           ",
"        ; $ & { ( } 1 3 3 3 | _ ^ ) * . @ > / 4 ~ 5 2 6         ",
"        - $ & { : | 3 7 8 7 1 } ^ ' * . @ 9 / 4 [ 0 a b         ",
"      @ . $ c { : | 3 7 8 7 1 } ^ ) $ . # 9 , < [ d b e f       ",
"      @ ; g h i ( } 1 3 7 3 | : ] & = + > / 4 ~ j k l m n       ",
"    / # + - o p q : } | | | _ ^ ' * . @ 9 , ~ r s t e u v w     ",
"    / 9 # ; x y z ^ ( : : ( ^ ' % - + > / ~ A B C D E F f v     ",
"    , / 9 @ ; G H I J K L M N O P Q R S T U V W X Y Z ` m n     ",
"    < , / 9 # ;  ...+.@.#.$.%.&.*.=.-.;.>.,.'.).!.Y Z ` m n     ",
"    [ < 4 / 9 > ~.{.].. . + 9 < 2 6 ^./.(._.:.<.!.Y [.` w }.    ",
"    5 [ ~ < , / ! |.1.2.3.4.5.6.7.8.9.0.a.b.c.<.!.Y Z ` w n     ",
"    a 2 0 5 ~ < 4 ~ d.e.'.f.g.h.h.i.j.k k.l.c.<.!.Y Z ` m n     ",
"    6 m.a 2 0 2 /.n.o.p.q.r./.o.o.n.s.t.u.c.c.<.v.w.Z F f }.    ",
"    /.^.b 6 o.v.<.c.x.y.z.C n.n.n.A.>.B.C.c.<.!.v.[.E u v f     ",
"    n.n.n.w.Z Y v.<.c.c.D.E.F.x.x.G.H.I.c.c.<.v.Y Z ` w }.      ",
"      v.u F E [.Y !.<.c.c.J.K.L.M.N.O.c.c.<.!.Y [.E u f }.      ",
"      u }.w ` Z w.Y !.<.<.P.Q.R.S.E.T.<.<.!.Y w.E ` m }.w       ",
"        }.v u ` Z w.Y v.!.<.U.V.W.X.<.!.v.Y [.Z ` w v v         ",
"          n f u ` E [.w.Y v.v.Y.Z.v.v.Y w.[.E ` u f }.          ",
"          w n f u ` e Z [.w.w.Y Y w.w.[.Z e F w f n             ",
"              n v m u ` e E Z Z Z Z E e ` u m v }.              ",
"                v }.f m u F F ` F F u u m f }.v                 ",
"                  u v }.v f f m m f f v n v                     ",
"                        m f }.v v }.f w                         ",
"                                                                ",
"                                                                "};
